<svg xmlns="http://www.w3.org/2000/svg" version="1.1" xmlns:xlink="http://www.w3.org/1999/xlink" xmlns:svgjs="http://svgjs.dev/svgjs" width="1440" height="560" preserveAspectRatio="none" viewBox="0 0 1440 560"><g mask="url(&quot;#SvgjsMask1006&quot;)" fill="none"><path d="M-54.67 348.46L-54.67 348.46" stroke="rgba(10, 10, 10, 1)" stroke-width="1.5"></path><path d="M-54.67 348.46L92.37 345.43" stroke="rgba(10, 10, 10, 1)" stroke-width="1.5"></path><path d="M-54.67 348.46L63.17 511.54" stroke="rgba(10, 10, 10, 1)" stroke-width="1.5"></path><path d="M-54.67 348.46L-79.2 548.22" stroke="rgba(10, 10, 10, 1)" stroke-width="1.5"></path><path d="M-54.67 348.46L236.79 382.36" stroke="rgba(10, 10, 10, 1)" stroke-width="1.5"></path><path d="M-54.67 348.46L223.92 539.8" stroke="rgba(10, 10, 10, 1)" stroke-width="1.5"></path><path d="M-54.67 348.46L85.97 670.22" stroke="rgba(10, 10, 10, 1)" stroke-width="1.5"></path><path d="M-79.2 548.22L-79.2 548.22" stroke="rgba(10, 10, 10, 1)" stroke-width="1.5"></path><path d="M-79.2 548.22L63.17 511.54" stroke="rgba(10, 10, 10, 1)" stroke-width="1.5"></path><path d="M-79.2 548.22L-66.39 711.15" stroke="rgba(10, 10, 10, 1)" stroke-width="1.5"></path><path d="M-79.2 548.22L85.97 670.22" stroke="rgba(10, 10, 10, 1)" stroke-width="1.5"></path><path d="M-79.2 548.22L92.37 345.43" stroke="rgba(10, 10, 10, 1)" stroke-width="1.5"></path><path d="M-66.39 711.15L-66.39 711.15" stroke="rgba(10, 10, 10, 1)" stroke-width="1.5"></path><path d="M-66.39 711.15L85.97 670.22" stroke="rgba(10, 10, 10, 1)" stroke-width="1.5"></path><path d="M-66.39 711.15L63.17 511.54" stroke="rgba(10, 10, 10, 1)" stroke-width="1.5"></path><path d="M-66.39 711.15L217.12 709.39" stroke="rgba(10, 10, 10, 1)" stroke-width="1.5"></path><path d="M92.37 345.43L92.37 345.43" stroke="rgba(10, 10, 10, 1)" stroke-width="1.5"></path><path d="M92.37 345.43L236.79 382.36" stroke="rgba(10, 10, 10, 1)" stroke-width="1.5"></path><path d="M92.37 345.43L63.17 511.54" stroke="rgba(10, 10, 10, 1)" stroke-width="1.5"></path><path d="M63.17 511.54L63.17 511.54" stroke="rgba(10, 10, 10, 1)" stroke-width="1.5"></path><path d="M63.17 511.54L85.97 670.22" stroke="rgba(10, 10, 10, 1)" stroke-width="1.5"></path><path d="M63.17 511.54L223.92 539.8" stroke="rgba(10, 10, 10, 1)" stroke-width="1.5"></path><path d="M85.97 670.22L85.97 670.22" stroke="rgba(10, 10, 10, 1)" stroke-width="1.5"></path><path d="M85.97 670.22L217.12 709.39" stroke="rgba(10, 10, 10, 1)" stroke-width="1.5"></path><path d="M85.97 670.22L223.92 539.8" stroke="rgba(10, 10, 10, 1)" stroke-width="1.5"></path><path d="M85.97 670.22L339.97 689.49" stroke="rgba(10, 10, 10, 1)" stroke-width="1.5"></path><path d="M236.79 382.36L236.79 382.36" stroke="rgba(10, 10, 10, 1)" stroke-width="1.5"></path><path d="M236.79 382.36L388.76 379.87" stroke="rgba(10, 10, 10, 1)" stroke-width="1.5"></path><path d="M223.92 539.8L223.92 539.8" stroke="rgba(10, 10, 10, 1)" stroke-width="1.5"></path><path d="M223.92 539.8L343.45 558.47" stroke="rgba(10, 10, 10, 1)" stroke-width="1.5"></path><path d="M223.92 539.8L236.79 382.36" stroke="rgba(10, 10, 10, 1)" stroke-width="1.5"></path><path d="M223.92 539.8L217.12 709.39" stroke="rgba(10, 10, 10, 1)" stroke-width="1.5"></path><path d="M223.92 539.8L339.97 689.49" stroke="rgba(10, 10, 10, 1)" stroke-width="1.5"></path><path d="M217.12 709.39L217.12 709.39" stroke="rgba(10, 10, 10, 1)" stroke-width="1.5"></path><path d="M217.12 709.39L339.97 689.49" stroke="rgba(10, 10, 10, 1)" stroke-width="1.5"></path><path d="M217.12 709.39L343.45 558.47" stroke="rgba(10, 10, 10, 1)" stroke-width="1.5"></path><path d="M217.12 709.39L63.17 511.54" stroke="rgba(10, 10, 10, 1)" stroke-width="1.5"></path><path d="M388.76 379.87L388.76 379.87" stroke="rgba(10, 10, 10, 1)" stroke-width="1.5"></path><path d="M388.76 379.87L530.86 358.71" stroke="rgba(10, 10, 10, 1)" stroke-width="1.5"></path><path d="M388.76 379.87L343.45 558.47" stroke="rgba(10, 10, 10, 1)" stroke-width="1.5"></path><path d="M388.76 379.87L530.77 497.88" stroke="rgba(10, 10, 10, 1)" stroke-width="1.5"></path><path d="M388.76 379.87L223.92 539.8" stroke="rgba(10, 10, 10, 1)" stroke-width="1.5"></path><path d="M343.45 558.47L343.45 558.47" stroke="rgba(10, 10, 10, 1)" stroke-width="1.5"></path><path d="M343.45 558.47L339.97 689.49" stroke="rgba(10, 10, 10, 1)" stroke-width="1.5"></path><path d="M339.97 689.49L339.97 689.49" stroke="rgba(10, 10, 10, 1)" stroke-width="1.5"></path><path d="M339.97 689.49L551.36 667.13" stroke="rgba(10, 10, 10, 1)" stroke-width="1.5"></path><path d="M339.97 689.49L530.77 497.88" stroke="rgba(10, 10, 10, 1)" stroke-width="1.5"></path><path d="M530.86 358.71L530.86 358.71" stroke="rgba(10, 10, 10, 1)" stroke-width="1.5"></path><path d="M530.86 358.71L530.77 497.88" stroke="rgba(10, 10, 10, 1)" stroke-width="1.5"></path><path d="M530.86 358.71L703.38 385.37" stroke="rgba(10, 10, 10, 1)" stroke-width="1.5"></path><path d="M530.86 358.71L690.16 213.04" stroke="rgba(10, 10, 10, 1)" stroke-width="1.5"></path><path d="M530.77 497.88L530.77 497.88" stroke="rgba(10, 10, 10, 1)" stroke-width="1.5"></path><path d="M530.77 497.88L666.53 558.56" stroke="rgba(10, 10, 10, 1)" stroke-width="1.5"></path><path d="M530.77 497.88L551.36 667.13" stroke="rgba(10, 10, 10, 1)" stroke-width="1.5"></path><path d="M551.36 667.13L551.36 667.13" stroke="rgba(10, 10, 10, 1)" stroke-width="1.5"></path><path d="M551.36 667.13L683.79 661.72" stroke="rgba(10, 10, 10, 1)" stroke-width="1.5"></path><path d="M551.36 667.13L666.53 558.56" stroke="rgba(10, 10, 10, 1)" stroke-width="1.5"></path><path d="M551.36 667.13L343.45 558.47" stroke="rgba(10, 10, 10, 1)" stroke-width="1.5"></path><path d="M690.16 213.04L690.16 213.04" stroke="rgba(10, 10, 10, 1)" stroke-width="1.5"></path><path d="M690.16 213.04L703.38 385.37" stroke="rgba(10, 10, 10, 1)" stroke-width="1.5"></path><path d="M690.16 213.04L850.15 71.03" stroke="rgba(10, 10, 10, 1)" stroke-width="1.5"></path><path d="M690.16 213.04L853.93 402.09" stroke="rgba(10, 10, 10, 1)" stroke-width="1.5"></path><path d="M690.16 213.04L977.22 199.28" stroke="rgba(10, 10, 10, 1)" stroke-width="1.5"></path><path d="M703.38 385.37L703.38 385.37" stroke="rgba(10, 10, 10, 1)" stroke-width="1.5"></path><path d="M703.38 385.37L853.93 402.09" stroke="rgba(10, 10, 10, 1)" stroke-width="1.5"></path><path d="M703.38 385.37L666.53 558.56" stroke="rgba(10, 10, 10, 1)" stroke-width="1.5"></path><path d="M666.53 558.56L666.53 558.56" stroke="rgba(10, 10, 10, 1)" stroke-width="1.5"></path><path d="M666.53 558.56L683.79 661.72" stroke="rgba(10, 10, 10, 1)" stroke-width="1.5"></path><path d="M666.53 558.56L797.22 544.34" stroke="rgba(10, 10, 10, 1)" stroke-width="1.5"></path><path d="M683.79 661.72L683.79 661.72" stroke="rgba(10, 10, 10, 1)" stroke-width="1.5"></path><path d="M850.15 71.03L850.15 71.03" stroke="rgba(10, 10, 10, 1)" stroke-width="1.5"></path><path d="M850.15 71.03L975.27 103.28" stroke="rgba(10, 10, 10, 1)" stroke-width="1.5"></path><path d="M850.15 71.03L977.22 199.28" stroke="rgba(10, 10, 10, 1)" stroke-width="1.5"></path><path d="M850.15 71.03L1000.54 -100.51" stroke="rgba(10, 10, 10, 1)" stroke-width="1.5"></path><path d="M853.93 402.09L853.93 402.09" stroke="rgba(10, 10, 10, 1)" stroke-width="1.5"></path><path d="M853.93 402.09L967.77 403.58" stroke="rgba(10, 10, 10, 1)" stroke-width="1.5"></path><path d="M853.93 402.09L968.83 493.54" stroke="rgba(10, 10, 10, 1)" stroke-width="1.5"></path><path d="M797.22 544.34L797.22 544.34" stroke="rgba(10, 10, 10, 1)" stroke-width="1.5"></path><path d="M797.22 544.34L850.24 646.88" stroke="rgba(10, 10, 10, 1)" stroke-width="1.5"></path><path d="M797.22 544.34L853.93 402.09" stroke="rgba(10, 10, 10, 1)" stroke-width="1.5"></path><path d="M797.22 544.34L683.79 661.72" stroke="rgba(10, 10, 10, 1)" stroke-width="1.5"></path><path d="M797.22 544.34L968.83 493.54" stroke="rgba(10, 10, 10, 1)" stroke-width="1.5"></path><path d="M797.22 544.34L703.38 385.37" stroke="rgba(10, 10, 10, 1)" stroke-width="1.5"></path><path d="M850.24 646.88L850.24 646.88" stroke="rgba(10, 10, 10, 1)" stroke-width="1.5"></path><path d="M850.24 646.88L938.6 669.88" stroke="rgba(10, 10, 10, 1)" stroke-width="1.5"></path><path d="M850.24 646.88L683.79 661.72" stroke="rgba(10, 10, 10, 1)" stroke-width="1.5"></path><path d="M1000.54 -100.51L1000.54 -100.51" stroke="rgba(10, 10, 10, 1)" stroke-width="1.5"></path><path d="M1000.54 -100.51L1136.93 -108.91" stroke="rgba(10, 10, 10, 1)" stroke-width="1.5"></path><path d="M1000.54 -100.51L975.27 103.28" stroke="rgba(10, 10, 10, 1)" stroke-width="1.5"></path><path d="M1000.54 -100.51L1153.32 72.59" stroke="rgba(10, 10, 10, 1)" stroke-width="1.5"></path><path d="M975.27 103.28L975.27 103.28" stroke="rgba(10, 10, 10, 1)" stroke-width="1.5"></path><path d="M975.27 103.28L977.22 199.28" stroke="rgba(10, 10, 10, 1)" stroke-width="1.5"></path><path d="M975.27 103.28L1153.32 72.59" stroke="rgba(10, 10, 10, 1)" stroke-width="1.5"></path><path d="M977.22 199.28L977.22 199.28" stroke="rgba(10, 10, 10, 1)" stroke-width="1.5"></path><path d="M977.22 199.28L967.77 403.58" stroke="rgba(10, 10, 10, 1)" stroke-width="1.5"></path><path d="M967.77 403.58L967.77 403.58" stroke="rgba(10, 10, 10, 1)" stroke-width="1.5"></path><path d="M967.77 403.58L968.83 493.54" stroke="rgba(10, 10, 10, 1)" stroke-width="1.5"></path><path d="M967.77 403.58L1145.08 401.61" stroke="rgba(10, 10, 10, 1)" stroke-width="1.5"></path><path d="M968.83 493.54L968.83 493.54" stroke="rgba(10, 10, 10, 1)" stroke-width="1.5"></path><path d="M938.6 669.88L938.6 669.88" stroke="rgba(10, 10, 10, 1)" stroke-width="1.5"></path><path d="M938.6 669.88L1090.3 653.78" stroke="rgba(10, 10, 10, 1)" stroke-width="1.5"></path><path d="M938.6 669.88L968.83 493.54" stroke="rgba(10, 10, 10, 1)" stroke-width="1.5"></path><path d="M1136.93 -108.91L1136.93 -108.91" stroke="rgba(10, 10, 10, 1)" stroke-width="1.5"></path><path d="M1136.93 -108.91L1153.32 72.59" stroke="rgba(10, 10, 10, 1)" stroke-width="1.5"></path><path d="M1136.93 -108.91L1311.62 48.29" stroke="rgba(10, 10, 10, 1)" stroke-width="1.5"></path><path d="M1136.93 -108.91L975.27 103.28" stroke="rgba(10, 10, 10, 1)" stroke-width="1.5"></path><path d="M1153.32 72.59L1153.32 72.59" stroke="rgba(10, 10, 10, 1)" stroke-width="1.5"></path><path d="M1153.32 72.59L1311.62 48.29" stroke="rgba(10, 10, 10, 1)" stroke-width="1.5"></path><path d="M1153.32 72.59L1277.39 216.05" stroke="rgba(10, 10, 10, 1)" stroke-width="1.5"></path><path d="M1153.32 72.59L977.22 199.28" stroke="rgba(10, 10, 10, 1)" stroke-width="1.5"></path><path d="M1145.08 401.61L1145.08 401.61" stroke="rgba(10, 10, 10, 1)" stroke-width="1.5"></path><path d="M1145.08 401.61L1149.7 544.17" stroke="rgba(10, 10, 10, 1)" stroke-width="1.5"></path><path d="M1145.08 401.61L1240.9 526.29" stroke="rgba(10, 10, 10, 1)" stroke-width="1.5"></path><path d="M1149.7 544.17L1149.7 544.17" stroke="rgba(10, 10, 10, 1)" stroke-width="1.5"></path><path d="M1149.7 544.17L1240.9 526.29" stroke="rgba(10, 10, 10, 1)" stroke-width="1.5"></path><path d="M1149.7 544.17L1090.3 653.78" stroke="rgba(10, 10, 10, 1)" stroke-width="1.5"></path><path d="M1149.7 544.17L968.83 493.54" stroke="rgba(10, 10, 10, 1)" stroke-width="1.5"></path><path d="M1149.7 544.17L1238.38 710.07" stroke="rgba(10, 10, 10, 1)" stroke-width="1.5"></path><path d="M1149.7 544.17L967.77 403.58" stroke="rgba(10, 10, 10, 1)" stroke-width="1.5"></path><path d="M1090.3 653.78L1090.3 653.78" stroke="rgba(10, 10, 10, 1)" stroke-width="1.5"></path><path d="M1090.3 653.78L1238.38 710.07" stroke="rgba(10, 10, 10, 1)" stroke-width="1.5"></path><path d="M1090.3 653.78L1240.9 526.29" stroke="rgba(10, 10, 10, 1)" stroke-width="1.5"></path><path d="M1090.3 653.78L968.83 493.54" stroke="rgba(10, 10, 10, 1)" stroke-width="1.5"></path><path d="M1090.3 653.78L850.24 646.88" stroke="rgba(10, 10, 10, 1)" stroke-width="1.5"></path><path d="M1311.62 48.29L1311.62 48.29" stroke="rgba(10, 10, 10, 1)" stroke-width="1.5"></path><path d="M1311.62 48.29L1428.4 79" stroke="rgba(10, 10, 10, 1)" stroke-width="1.5"></path><path d="M1311.62 48.29L1423.23 -59.68" stroke="rgba(10, 10, 10, 1)" stroke-width="1.5"></path><path d="M1311.62 48.29L1277.39 216.05" stroke="rgba(10, 10, 10, 1)" stroke-width="1.5"></path><path d="M1311.62 48.29L1551.17 50.19" stroke="rgba(10, 10, 10, 1)" stroke-width="1.5"></path><path d="M1277.39 216.05L1277.39 216.05" stroke="rgba(10, 10, 10, 1)" stroke-width="1.5"></path><path d="M1277.39 216.05L1302.78 346.24" stroke="rgba(10, 10, 10, 1)" stroke-width="1.5"></path><path d="M1302.78 346.24L1302.78 346.24" stroke="rgba(10, 10, 10, 1)" stroke-width="1.5"></path><path d="M1302.78 346.24L1145.08 401.61" stroke="rgba(10, 10, 10, 1)" stroke-width="1.5"></path><path d="M1302.78 346.24L1240.9 526.29" stroke="rgba(10, 10, 10, 1)" stroke-width="1.5"></path><path d="M1302.78 346.24L1412.82 538.86" stroke="rgba(10, 10, 10, 1)" stroke-width="1.5"></path><path d="M1240.9 526.29L1240.9 526.29" stroke="rgba(10, 10, 10, 1)" stroke-width="1.5"></path><path d="M1240.9 526.29L1412.82 538.86" stroke="rgba(10, 10, 10, 1)" stroke-width="1.5"></path><path d="M1240.9 526.29L1238.38 710.07" stroke="rgba(10, 10, 10, 1)" stroke-width="1.5"></path><path d="M1238.38 710.07L1238.38 710.07" stroke="rgba(10, 10, 10, 1)" stroke-width="1.5"></path><path d="M1238.38 710.07L1404.28 711.08" stroke="rgba(10, 10, 10, 1)" stroke-width="1.5"></path><path d="M1423.23 -59.68L1423.23 -59.68" stroke="rgba(10, 10, 10, 1)" stroke-width="1.5"></path><path d="M1423.23 -59.68L1552.98 -81.58" stroke="rgba(10, 10, 10, 1)" stroke-width="1.5"></path><path d="M1423.23 -59.68L1428.4 79" stroke="rgba(10, 10, 10, 1)" stroke-width="1.5"></path><path d="M1423.23 -59.68L1551.17 50.19" stroke="rgba(10, 10, 10, 1)" stroke-width="1.5"></path><path d="M1423.23 -59.68L1136.93 -108.91" stroke="rgba(10, 10, 10, 1)" stroke-width="1.5"></path><path d="M1423.23 -59.68L1153.32 72.59" stroke="rgba(10, 10, 10, 1)" stroke-width="1.5"></path><path d="M1428.4 79L1428.4 79" stroke="rgba(10, 10, 10, 1)" stroke-width="1.5"></path><path d="M1428.4 79L1551.17 50.19" stroke="rgba(10, 10, 10, 1)" stroke-width="1.5"></path><path d="M1428.4 79L1552.98 -81.58" stroke="rgba(10, 10, 10, 1)" stroke-width="1.5"></path><path d="M1412.82 538.86L1412.82 538.86" stroke="rgba(10, 10, 10, 1)" stroke-width="1.5"></path><path d="M1412.82 538.86L1404.28 711.08" stroke="rgba(10, 10, 10, 1)" stroke-width="1.5"></path><path d="M1412.82 538.86L1602.47 549.72" stroke="rgba(10, 10, 10, 1)" stroke-width="1.5"></path><path d="M1404.28 711.08L1404.28 711.08" stroke="rgba(10, 10, 10, 1)" stroke-width="1.5"></path><path d="M1404.28 711.08L1577.62 712.09" stroke="rgba(10, 10, 10, 1)" stroke-width="1.5"></path><path d="M1404.28 711.08L1240.9 526.29" stroke="rgba(10, 10, 10, 1)" stroke-width="1.5"></path><path d="M1552.98 -81.58L1552.98 -81.58" stroke="rgba(10, 10, 10, 1)" stroke-width="1.5"></path><path d="M1552.98 -81.58L1551.17 50.19" stroke="rgba(10, 10, 10, 1)" stroke-width="1.5"></path><path d="M1552.98 -81.58L1311.62 48.29" stroke="rgba(10, 10, 10, 1)" stroke-width="1.5"></path><path d="M1552.98 -81.58L1571.24 248.37" stroke="rgba(10, 10, 10, 1)" stroke-width="1.5"></path><path d="M1551.17 50.19L1551.17 50.19" stroke="rgba(10, 10, 10, 1)" stroke-width="1.5"></path><path d="M1551.17 50.19L1571.24 248.37" stroke="rgba(10, 10, 10, 1)" stroke-width="1.5"></path><path d="M1551.17 50.19L1277.39 216.05" stroke="rgba(10, 10, 10, 1)" stroke-width="1.5"></path><path d="M1571.24 248.37L1571.24 248.37" stroke="rgba(10, 10, 10, 1)" stroke-width="1.5"></path><path d="M1571.24 248.37L1428.4 79" stroke="rgba(10, 10, 10, 1)" stroke-width="1.5"></path><path d="M1571.24 248.37L1302.78 346.24" stroke="rgba(10, 10, 10, 1)" stroke-width="1.5"></path><path d="M1571.24 248.37L1277.39 216.05" stroke="rgba(10, 10, 10, 1)" stroke-width="1.5"></path><path d="M1571.24 248.37L1602.47 549.72" stroke="rgba(10, 10, 10, 1)" stroke-width="1.5"></path><path d="M1571.24 248.37L1311.62 48.29" stroke="rgba(10, 10, 10, 1)" stroke-width="1.5"></path><path d="M1602.47 549.72L1602.47 549.72" stroke="rgba(10, 10, 10, 1)" stroke-width="1.5"></path><path d="M1602.47 549.72L1577.62 712.09" stroke="rgba(10, 10, 10, 1)" stroke-width="1.5"></path><path d="M1602.47 549.72L1404.28 711.08" stroke="rgba(10, 10, 10, 1)" stroke-width="1.5"></path><path d="M1602.47 549.72L1302.78 346.24" stroke="rgba(10, 10, 10, 1)" stroke-width="1.5"></path><path d="M1602.47 549.72L1240.9 526.29" stroke="rgba(10, 10, 10, 1)" stroke-width="1.5"></path><path d="M1577.62 712.09L1577.62 712.09" stroke="rgba(10, 10, 10, 1)" stroke-width="1.5"></path><path d="M1577.62 712.09L1412.82 538.86" stroke="rgba(10, 10, 10, 1)" stroke-width="1.5"></path><path d="M1577.62 712.09L1238.38 710.07" stroke="rgba(10, 10, 10, 1)" stroke-width="1.5"></path><circle r="5" cx="-54.67" cy="348.46" fill="rgba(10, 10, 10, 1)"></circle><circle r="5" cx="-79.2" cy="548.22" fill="rgba(10, 10, 10, 1)"></circle><circle r="5" cx="-66.39" cy="711.15" fill="rgba(10, 10, 10, 1)"></circle><circle r="5" cx="92.37" cy="345.43" fill="rgba(10, 10, 10, 1)"></circle><circle r="5" cx="63.17" cy="511.54" fill="rgba(10, 10, 10, 1)"></circle><circle r="5" cx="85.97" cy="670.22" fill="rgba(10, 10, 10, 1)"></circle><circle r="5" cx="236.79" cy="382.36" fill="rgba(10, 10, 10, 1)"></circle><circle r="5" cx="223.92" cy="539.8" fill="rgba(10, 10, 10, 1)"></circle><circle r="5" cx="217.12" cy="709.39" fill="rgba(10, 10, 10, 1)"></circle><circle r="5" cx="388.76" cy="379.87" fill="rgba(10, 10, 10, 1)"></circle><circle r="5" cx="343.45" cy="558.47" fill="rgba(10, 10, 10, 1)"></circle><circle r="5" cx="339.97" cy="689.49" fill="rgba(10, 10, 10, 1)"></circle><circle r="5" cx="530.86" cy="358.71" fill="rgba(10, 10, 10, 1)"></circle><circle r="5" cx="530.77" cy="497.88" fill="rgba(10, 10, 10, 1)"></circle><circle r="5" cx="551.36" cy="667.13" fill="rgba(10, 10, 10, 1)"></circle><circle r="5" cx="690.16" cy="213.04" fill="rgba(10, 10, 10, 1)"></circle><circle r="5" cx="703.38" cy="385.37" fill="rgba(10, 10, 10, 1)"></circle><circle r="5" cx="666.53" cy="558.56" fill="rgba(10, 10, 10, 1)"></circle><circle r="5" cx="683.79" cy="661.72" fill="rgba(10, 10, 10, 1)"></circle><circle r="5" cx="850.15" cy="71.03" fill="rgba(10, 10, 10, 1)"></circle><circle r="5" cx="853.93" cy="402.09" fill="rgba(10, 10, 10, 1)"></circle><circle r="5" cx="797.22" cy="544.34" fill="rgba(10, 10, 10, 1)"></circle><circle r="5" cx="850.24" cy="646.88" fill="rgba(10, 10, 10, 1)"></circle><circle r="5" cx="1000.54" cy="-100.51" fill="rgba(10, 10, 10, 1)"></circle><circle r="5" cx="975.27" cy="103.28" fill="rgba(10, 10, 10, 1)"></circle><circle r="5" cx="977.22" cy="199.28" fill="rgba(10, 10, 10, 1)"></circle><circle r="5" cx="967.77" cy="403.58" fill="rgba(10, 10, 10, 1)"></circle><circle r="5" cx="968.83" cy="493.54" fill="rgba(10, 10, 10, 1)"></circle><circle r="5" cx="938.6" cy="669.88" fill="rgba(10, 10, 10, 1)"></circle><circle r="5" cx="1136.93" cy="-108.91" fill="rgba(10, 10, 10, 1)"></circle><circle r="5" cx="1153.32" cy="72.59" fill="rgba(10, 10, 10, 1)"></circle><circle r="5" cx="1145.08" cy="401.61" fill="rgba(10, 10, 10, 1)"></circle><circle r="5" cx="1149.7" cy="544.17" fill="rgba(10, 10, 10, 1)"></circle><circle r="5" cx="1090.3" cy="653.78" fill="rgba(10, 10, 10, 1)"></circle><circle r="5" cx="1311.62" cy="48.29" fill="rgba(10, 10, 10, 1)"></circle><circle r="5" cx="1277.39" cy="216.05" fill="rgba(10, 10, 10, 1)"></circle><circle r="5" cx="1302.78" cy="346.24" fill="rgba(10, 10, 10, 1)"></circle><circle r="5" cx="1240.9" cy="526.29" fill="rgba(10, 10, 10, 1)"></circle><circle r="5" cx="1238.38" cy="710.07" fill="rgba(10, 10, 10, 1)"></circle><circle r="5" cx="1423.23" cy="-59.68" fill="rgba(10, 10, 10, 1)"></circle><circle r="5" cx="1428.4" cy="79" fill="rgba(10, 10, 10, 1)"></circle><circle r="5" cx="1412.82" cy="538.86" fill="rgba(10, 10, 10, 1)"></circle><circle r="5" cx="1404.28" cy="711.08" fill="rgba(10, 10, 10, 1)"></circle><circle r="5" cx="1552.98" cy="-81.58" fill="rgba(10, 10, 10, 1)"></circle><circle r="5" cx="1551.17" cy="50.19" fill="rgba(10, 10, 10, 1)"></circle><circle r="5" cx="1571.24" cy="248.37" fill="rgba(10, 10, 10, 1)"></circle><circle r="5" cx="1602.47" cy="549.72" fill="rgba(10, 10, 10, 1)"></circle><circle r="5" cx="1577.62" cy="712.09" fill="rgba(10, 10, 10, 1)"></circle><path d="M1289.08 108.68L1289.08 108.68" stroke="hsl(347.6, 70.7%, 50.5%)" stroke-width="1.5"></path><path d="M1289.08 108.68L1311.48 213.33" stroke="hsl(347.6, 70.7%, 50.5%)" stroke-width="1.5"></path><path d="M1289.08 108.68L1409.5 190.15" stroke="hsl(347.6, 70.7%, 50.5%)" stroke-width="1.5"></path><path d="M1289.08 108.68L1442.97 41.67" stroke="hsl(347.6, 70.7%, 50.5%)" stroke-width="1.5"></path><path d="M1311.48 213.33L1311.48 213.33" stroke="hsl(347.6, 70.7%, 50.5%)" stroke-width="1.5"></path><path d="M1311.48 213.33L1409.5 190.15" stroke="hsl(347.6, 70.7%, 50.5%)" stroke-width="1.5"></path><path d="M1311.48 213.33L1261.93 356.75" stroke="hsl(347.6, 70.7%, 50.5%)" stroke-width="1.5"></path><path d="M1311.48 213.33L1115.35 190.54" stroke="hsl(347.6, 70.7%, 50.5%)" stroke-width="1.5"></path><path d="M1422.96 637.87L1422.96 637.87" stroke="hsl(347.6, 70.7%, 50.5%)" stroke-width="1.5"></path><path d="M1422.96 637.87L1390.16 544.47" stroke="hsl(347.6, 70.7%, 50.5%)" stroke-width="1.5"></path><path d="M1422.96 637.87L1568.1 678.63" stroke="hsl(347.6, 70.7%, 50.5%)" stroke-width="1.5"></path><path d="M1422.96 637.87L1273.28 551.19" stroke="hsl(347.6, 70.7%, 50.5%)" stroke-width="1.5"></path><path d="M1422.96 637.87L1581.34 557.21" stroke="hsl(347.6, 70.7%, 50.5%)" stroke-width="1.5"></path><path d="M1422.96 637.87L1397.22 410.77" stroke="hsl(347.6, 70.7%, 50.5%)" stroke-width="1.5"></path><path d="M-68.23 504.65L-68.23 504.65" stroke="hsl(347.6, 70.7%, 50.5%)" stroke-width="1.5"></path><path d="M-68.23 504.65L69.52 502.72" stroke="hsl(347.6, 70.7%, 50.5%)" stroke-width="1.5"></path><path d="M-68.23 504.65L85.59 676.09" stroke="hsl(347.6, 70.7%, 50.5%)" stroke-width="1.5"></path><path d="M-68.23 504.65L234.26 516.34" stroke="hsl(347.6, 70.7%, 50.5%)" stroke-width="1.5"></path><path d="M-68.23 504.65L227.2 655.03" stroke="hsl(347.6, 70.7%, 50.5%)" stroke-width="1.5"></path><path d="M-68.23 504.65L405.55 530.56" stroke="hsl(347.6, 70.7%, 50.5%)" stroke-width="1.5"></path><path d="M-68.23 504.65L412.22 699.3" stroke="hsl(347.6, 70.7%, 50.5%)" stroke-width="1.5"></path><path d="M69.52 502.72L69.52 502.72" stroke="hsl(347.6, 70.7%, 50.5%)" stroke-width="1.5"></path><path d="M69.52 502.72L234.26 516.34" stroke="hsl(347.6, 70.7%, 50.5%)" stroke-width="1.5"></path><path d="M69.52 502.72L85.59 676.09" stroke="hsl(347.6, 70.7%, 50.5%)" stroke-width="1.5"></path><path d="M69.52 502.72L227.2 655.03" stroke="hsl(347.6, 70.7%, 50.5%)" stroke-width="1.5"></path><path d="M85.59 676.09L85.59 676.09" stroke="hsl(347.6, 70.7%, 50.5%)" stroke-width="1.5"></path><path d="M85.59 676.09L227.2 655.03" stroke="hsl(347.6, 70.7%, 50.5%)" stroke-width="1.5"></path><path d="M85.59 676.09L234.26 516.34" stroke="hsl(347.6, 70.7%, 50.5%)" stroke-width="1.5"></path><path d="M234.26 516.34L234.26 516.34" stroke="hsl(347.6, 70.7%, 50.5%)" stroke-width="1.5"></path><path d="M234.26 516.34L227.2 655.03" stroke="hsl(347.6, 70.7%, 50.5%)" stroke-width="1.5"></path><path d="M234.26 516.34L405.55 530.56" stroke="hsl(347.6, 70.7%, 50.5%)" stroke-width="1.5"></path><path d="M227.2 655.03L227.2 655.03" stroke="hsl(347.6, 70.7%, 50.5%)" stroke-width="1.5"></path><path d="M227.2 655.03L412.22 699.3" stroke="hsl(347.6, 70.7%, 50.5%)" stroke-width="1.5"></path><path d="M227.2 655.03L405.55 530.56" stroke="hsl(347.6, 70.7%, 50.5%)" stroke-width="1.5"></path><path d="M405.55 530.56L405.55 530.56" stroke="hsl(347.6, 70.7%, 50.5%)" stroke-width="1.5"></path><path d="M405.55 530.56L492.79 537.71" stroke="hsl(347.6, 70.7%, 50.5%)" stroke-width="1.5"></path><path d="M405.55 530.56L412.22 699.3" stroke="hsl(347.6, 70.7%, 50.5%)" stroke-width="1.5"></path><path d="M412.22 699.3L412.22 699.3" stroke="hsl(347.6, 70.7%, 50.5%)" stroke-width="1.5"></path><path d="M412.22 699.3L529.48 659.67" stroke="hsl(347.6, 70.7%, 50.5%)" stroke-width="1.5"></path><path d="M492.79 537.71L492.79 537.71" stroke="hsl(347.6, 70.7%, 50.5%)" stroke-width="1.5"></path><path d="M529.48 659.67L529.48 659.67" stroke="hsl(347.6, 70.7%, 50.5%)" stroke-width="1.5"></path><path d="M529.48 659.67L647.45 677.27" stroke="hsl(347.6, 70.7%, 50.5%)" stroke-width="1.5"></path><path d="M529.48 659.67L492.79 537.71" stroke="hsl(347.6, 70.7%, 50.5%)" stroke-width="1.5"></path><path d="M529.48 659.67L405.55 530.56" stroke="hsl(347.6, 70.7%, 50.5%)" stroke-width="1.5"></path><path d="M529.48 659.67L649.74 496.84" stroke="hsl(347.6, 70.7%, 50.5%)" stroke-width="1.5"></path><path d="M649.74 496.84L649.74 496.84" stroke="hsl(347.6, 70.7%, 50.5%)" stroke-width="1.5"></path><path d="M649.74 496.84L802.69 533.57" stroke="hsl(347.6, 70.7%, 50.5%)" stroke-width="1.5"></path><path d="M649.74 496.84L492.79 537.71" stroke="hsl(347.6, 70.7%, 50.5%)" stroke-width="1.5"></path><path d="M649.74 496.84L647.45 677.27" stroke="hsl(347.6, 70.7%, 50.5%)" stroke-width="1.5"></path><path d="M649.74 496.84L806.76 361.5" stroke="hsl(347.6, 70.7%, 50.5%)" stroke-width="1.5"></path><path d="M649.74 496.84L405.55 530.56" stroke="hsl(347.6, 70.7%, 50.5%)" stroke-width="1.5"></path><path d="M647.45 677.27L647.45 677.27" stroke="hsl(347.6, 70.7%, 50.5%)" stroke-width="1.5"></path><path d="M647.45 677.27L492.79 537.71" stroke="hsl(347.6, 70.7%, 50.5%)" stroke-width="1.5"></path><path d="M806.76 361.5L806.76 361.5" stroke="hsl(347.6, 70.7%, 50.5%)" stroke-width="1.5"></path><path d="M806.76 361.5L951.59 354.25" stroke="hsl(347.6, 70.7%, 50.5%)" stroke-width="1.5"></path><path d="M806.76 361.5L802.69 533.57" stroke="hsl(347.6, 70.7%, 50.5%)" stroke-width="1.5"></path><path d="M806.76 361.5L986.48 508.77" stroke="hsl(347.6, 70.7%, 50.5%)" stroke-width="1.5"></path><path d="M802.69 533.57L802.69 533.57" stroke="hsl(347.6, 70.7%, 50.5%)" stroke-width="1.5"></path><path d="M802.69 533.57L986.48 508.77" stroke="hsl(347.6, 70.7%, 50.5%)" stroke-width="1.5"></path><path d="M951.59 354.25L951.59 354.25" stroke="hsl(347.6, 70.7%, 50.5%)" stroke-width="1.5"></path><path d="M951.59 354.25L1089.59 377.63" stroke="hsl(347.6, 70.7%, 50.5%)" stroke-width="1.5"></path><path d="M951.59 354.25L986.48 508.77" stroke="hsl(347.6, 70.7%, 50.5%)" stroke-width="1.5"></path><path d="M986.48 508.77L986.48 508.77" stroke="hsl(347.6, 70.7%, 50.5%)" stroke-width="1.5"></path><path d="M986.48 508.77L1089.59 377.63" stroke="hsl(347.6, 70.7%, 50.5%)" stroke-width="1.5"></path><path d="M948.01 691.04L948.01 691.04" stroke="hsl(347.6, 70.7%, 50.5%)" stroke-width="1.5"></path><path d="M948.01 691.04L1122.88 654.95" stroke="hsl(347.6, 70.7%, 50.5%)" stroke-width="1.5"></path><path d="M948.01 691.04L986.48 508.77" stroke="hsl(347.6, 70.7%, 50.5%)" stroke-width="1.5"></path><path d="M948.01 691.04L802.69 533.57" stroke="hsl(347.6, 70.7%, 50.5%)" stroke-width="1.5"></path><path d="M1115.35 190.54L1115.35 190.54" stroke="hsl(347.6, 70.7%, 50.5%)" stroke-width="1.5"></path><path d="M1115.35 190.54L1089.59 377.63" stroke="hsl(347.6, 70.7%, 50.5%)" stroke-width="1.5"></path><path d="M1115.35 190.54L1289.08 108.68" stroke="hsl(347.6, 70.7%, 50.5%)" stroke-width="1.5"></path><path d="M1089.59 377.63L1089.59 377.63" stroke="hsl(347.6, 70.7%, 50.5%)" stroke-width="1.5"></path><path d="M1153.79 518.94L1153.79 518.94" stroke="hsl(347.6, 70.7%, 50.5%)" stroke-width="1.5"></path><path d="M1153.79 518.94L1273.28 551.19" stroke="hsl(347.6, 70.7%, 50.5%)" stroke-width="1.5"></path><path d="M1153.79 518.94L1122.88 654.95" stroke="hsl(347.6, 70.7%, 50.5%)" stroke-width="1.5"></path><path d="M1153.79 518.94L1089.59 377.63" stroke="hsl(347.6, 70.7%, 50.5%)" stroke-width="1.5"></path><path d="M1153.79 518.94L986.48 508.77" stroke="hsl(347.6, 70.7%, 50.5%)" stroke-width="1.5"></path><path d="M1153.79 518.94L1261.93 356.75" stroke="hsl(347.6, 70.7%, 50.5%)" stroke-width="1.5"></path><path d="M1122.88 654.95L1122.88 654.95" stroke="hsl(347.6, 70.7%, 50.5%)" stroke-width="1.5"></path><path d="M1122.88 654.95L1273.28 551.19" stroke="hsl(347.6, 70.7%, 50.5%)" stroke-width="1.5"></path><path d="M1239.14 -90.9L1239.14 -90.9" stroke="hsl(347.6, 70.7%, 50.5%)" stroke-width="1.5"></path><path d="M1239.14 -90.9L1289.08 108.68" stroke="hsl(347.6, 70.7%, 50.5%)" stroke-width="1.5"></path><path d="M1239.14 -90.9L1455.36 -44.05" stroke="hsl(347.6, 70.7%, 50.5%)" stroke-width="1.5"></path><path d="M1261.93 356.75L1261.93 356.75" stroke="hsl(347.6, 70.7%, 50.5%)" stroke-width="1.5"></path><path d="M1261.93 356.75L1397.22 410.77" stroke="hsl(347.6, 70.7%, 50.5%)" stroke-width="1.5"></path><path d="M1261.93 356.75L1089.59 377.63" stroke="hsl(347.6, 70.7%, 50.5%)" stroke-width="1.5"></path><path d="M1261.93 356.75L1273.28 551.19" stroke="hsl(347.6, 70.7%, 50.5%)" stroke-width="1.5"></path><path d="M1273.28 551.19L1273.28 551.19" stroke="hsl(347.6, 70.7%, 50.5%)" stroke-width="1.5"></path><path d="M1273.28 551.19L1390.16 544.47" stroke="hsl(347.6, 70.7%, 50.5%)" stroke-width="1.5"></path><path d="M1273.28 551.19L1397.22 410.77" stroke="hsl(347.6, 70.7%, 50.5%)" stroke-width="1.5"></path><path d="M1455.36 -44.05L1455.36 -44.05" stroke="hsl(347.6, 70.7%, 50.5%)" stroke-width="1.5"></path><path d="M1455.36 -44.05L1442.97 41.67" stroke="hsl(347.6, 70.7%, 50.5%)" stroke-width="1.5"></path><path d="M1455.36 -44.05L1585.53 -51.4" stroke="hsl(347.6, 70.7%, 50.5%)" stroke-width="1.5"></path><path d="M1455.36 -44.05L1579.86 94.4" stroke="hsl(347.6, 70.7%, 50.5%)" stroke-width="1.5"></path><path d="M1442.97 41.67L1442.97 41.67" stroke="hsl(347.6, 70.7%, 50.5%)" stroke-width="1.5"></path><path d="M1442.97 41.67L1579.86 94.4" stroke="hsl(347.6, 70.7%, 50.5%)" stroke-width="1.5"></path><path d="M1409.5 190.15L1409.5 190.15" stroke="hsl(347.6, 70.7%, 50.5%)" stroke-width="1.5"></path><path d="M1409.5 190.15L1442.97 41.67" stroke="hsl(347.6, 70.7%, 50.5%)" stroke-width="1.5"></path><path d="M1409.5 190.15L1585.5 227.34" stroke="hsl(347.6, 70.7%, 50.5%)" stroke-width="1.5"></path><path d="M1397.22 410.77L1397.22 410.77" stroke="hsl(347.6, 70.7%, 50.5%)" stroke-width="1.5"></path><path d="M1397.22 410.77L1390.16 544.47" stroke="hsl(347.6, 70.7%, 50.5%)" stroke-width="1.5"></path><path d="M1397.22 410.77L1311.48 213.33" stroke="hsl(347.6, 70.7%, 50.5%)" stroke-width="1.5"></path><path d="M1397.22 410.77L1409.5 190.15" stroke="hsl(347.6, 70.7%, 50.5%)" stroke-width="1.5"></path><path d="M1390.16 544.47L1390.16 544.47" stroke="hsl(347.6, 70.7%, 50.5%)" stroke-width="1.5"></path><path d="M1390.16 544.47L1581.34 557.21" stroke="hsl(347.6, 70.7%, 50.5%)" stroke-width="1.5"></path><path d="M1585.53 -51.4L1585.53 -51.4" stroke="hsl(347.6, 70.7%, 50.5%)" stroke-width="1.5"></path><path d="M1579.86 94.4L1579.86 94.4" stroke="hsl(347.6, 70.7%, 50.5%)" stroke-width="1.5"></path><path d="M1579.86 94.4L1585.5 227.34" stroke="hsl(347.6, 70.7%, 50.5%)" stroke-width="1.5"></path><path d="M1579.86 94.4L1585.53 -51.4" stroke="hsl(347.6, 70.7%, 50.5%)" stroke-width="1.5"></path><path d="M1579.86 94.4L1409.5 190.15" stroke="hsl(347.6, 70.7%, 50.5%)" stroke-width="1.5"></path><path d="M1579.86 94.4L1289.08 108.68" stroke="hsl(347.6, 70.7%, 50.5%)" stroke-width="1.5"></path><path d="M1585.5 227.34L1585.5 227.34" stroke="hsl(347.6, 70.7%, 50.5%)" stroke-width="1.5"></path><path d="M1585.5 227.34L1442.97 41.67" stroke="hsl(347.6, 70.7%, 50.5%)" stroke-width="1.5"></path><path d="M1585.5 227.34L1397.22 410.77" stroke="hsl(347.6, 70.7%, 50.5%)" stroke-width="1.5"></path><path d="M1585.5 227.34L1311.48 213.33" stroke="hsl(347.6, 70.7%, 50.5%)" stroke-width="1.5"></path><path d="M1585.5 227.34L1585.53 -51.4" stroke="hsl(347.6, 70.7%, 50.5%)" stroke-width="1.5"></path><path d="M1581.34 557.21L1581.34 557.21" stroke="hsl(347.6, 70.7%, 50.5%)" stroke-width="1.5"></path><path d="M1581.34 557.21L1568.1 678.63" stroke="hsl(347.6, 70.7%, 50.5%)" stroke-width="1.5"></path><path d="M1581.34 557.21L1397.22 410.77" stroke="hsl(347.6, 70.7%, 50.5%)" stroke-width="1.5"></path><path d="M1581.34 557.21L1273.28 551.19" stroke="hsl(347.6, 70.7%, 50.5%)" stroke-width="1.5"></path><path d="M1581.34 557.21L1585.5 227.34" stroke="hsl(347.6, 70.7%, 50.5%)" stroke-width="1.5"></path><path d="M1568.1 678.63L1568.1 678.63" stroke="hsl(347.6, 70.7%, 50.5%)" stroke-width="1.5"></path><path d="M1568.1 678.63L1390.16 544.47" stroke="hsl(347.6, 70.7%, 50.5%)" stroke-width="1.5"></path><circle r="25" cx="1289.08" cy="108.68" fill="url(&quot;#SvgjsRadialGradient1007&quot;)"></circle><circle r="25" cx="1311.48" cy="213.33" fill="url(&quot;#SvgjsRadialGradient1007&quot;)"></circle><circle r="25" cx="1422.96" cy="637.87" fill="url(&quot;#SvgjsRadialGradient1007&quot;)"></circle><circle r="5" cx="-68.23" cy="504.65" fill="#d48e9d"></circle><circle r="5" cx="69.52" cy="502.72" fill="#d48e9d"></circle><circle r="5" cx="85.59" cy="676.09" fill="#d48e9d"></circle><circle r="5" cx="234.26" cy="516.34" fill="#d48e9d"></circle><circle r="5" cx="227.2" cy="655.03" fill="#d48e9d"></circle><circle r="5" cx="405.55" cy="530.56" fill="#d48e9d"></circle><circle r="5" cx="412.22" cy="699.3" fill="#d48e9d"></circle><circle r="5" cx="492.79" cy="537.71" fill="#d48e9d"></circle><circle r="5" cx="529.48" cy="659.67" fill="#d48e9d"></circle><circle r="5" cx="649.74" cy="496.84" fill="#d48e9d"></circle><circle r="5" cx="647.45" cy="677.27" fill="#d48e9d"></circle><circle r="5" cx="806.76" cy="361.5" fill="#d48e9d"></circle><circle r="5" cx="802.69" cy="533.57" fill="#d48e9d"></circle><circle r="5" cx="951.59" cy="354.25" fill="#d48e9d"></circle><circle r="5" cx="986.48" cy="508.77" fill="#d48e9d"></circle><circle r="5" cx="948.01" cy="691.04" fill="#d48e9d"></circle><circle r="5" cx="1115.35" cy="190.54" fill="#d48e9d"></circle><circle r="5" cx="1089.59" cy="377.63" fill="#d48e9d"></circle><circle r="5" cx="1153.79" cy="518.94" fill="#d48e9d"></circle><circle r="5" cx="1122.88" cy="654.95" fill="#d48e9d"></circle><circle r="5" cx="1239.14" cy="-90.9" fill="#d48e9d"></circle><circle r="5" cx="1261.93" cy="356.75" fill="#d48e9d"></circle><circle r="5" cx="1273.28" cy="551.19" fill="#d48e9d"></circle><circle r="5" cx="1455.36" cy="-44.05" fill="#d48e9d"></circle><circle r="5" cx="1442.97" cy="41.67" fill="#d48e9d"></circle><circle r="5" cx="1409.5" cy="190.15" fill="#d48e9d"></circle><circle r="5" cx="1397.22" cy="410.77" fill="#d48e9d"></circle><circle r="5" cx="1390.16" cy="544.47" fill="#d48e9d"></circle><circle r="5" cx="1585.53" cy="-51.4" fill="#d48e9d"></circle><circle r="5" cx="1579.86" cy="94.4" fill="#d48e9d"></circle><circle r="5" cx="1585.5" cy="227.34" fill="#d48e9d"></circle><circle r="5" cx="1581.34" cy="557.21" fill="#d48e9d"></circle><circle r="5" cx="1568.1" cy="678.63" fill="#d48e9d"></circle></g><defs><mask id="SvgjsMask1006"><rect width="1440" height="560" fill="#ffffff"></rect></mask><radialGradient id="SvgjsRadialGradient1007"><stop stop-color="#ffffff" offset="0.1"></stop><stop stop-color="rgba(169, 29, 58, 1)" offset="0.2"></stop><stop stop-color="rgba(169, 29, 58, 0)" offset="1"></stop></radialGradient></defs></svg>